<svg width="54" height="66" viewBox="0 0 54 66" fill="none" xmlns="http://www.w3.org/2000/svg">
<path d="M7.52 57.2493C5.8 57.2493 4.47333 56.7893 3.54 55.8693C2.60667 54.936 2.14 53.5293 2.14 51.6493V43.5293C2.14 43.3826 2.18 43.2693 2.26 43.1893C2.34 43.096 2.44667 43.0493 2.58 43.0493H3.54C3.68667 43.0493 3.8 43.096 3.88 43.1893C3.97333 43.2693 4.02 43.3826 4.02 43.5293V51.6893C4.02 52.996 4.32 53.9693 4.92 54.6093C5.53333 55.2493 6.4 55.5693 7.52 55.5693C8.62667 55.5693 9.48 55.2493 10.08 54.6093C10.6933 53.956 11 52.9826 11 51.6893V43.5293C11 43.3826 11.04 43.2693 11.12 43.1893C11.2 43.096 11.3133 43.0493 11.46 43.0493H12.42C12.5533 43.0493 12.66 43.096 12.74 43.1893C12.8333 43.2693 12.88 43.3826 12.88 43.5293V51.6493C12.88 53.5293 12.4133 54.936 11.48 55.8693C10.56 56.7893 9.24 57.2493 7.52 57.2493ZM19.4858 57.2493C18.5658 57.2493 17.7858 57.1026 17.1458 56.8093C16.5191 56.5026 16.0524 56.156 15.7458 55.7693C15.4391 55.3826 15.2858 55.0626 15.2858 54.8093C15.2858 54.676 15.3324 54.576 15.4258 54.5093C15.5191 54.4293 15.6191 54.3893 15.7258 54.3893H16.5658C16.6458 54.3893 16.7058 54.4026 16.7458 54.4293C16.7991 54.456 16.8658 54.516 16.9458 54.6093C17.2524 54.9826 17.5924 55.276 17.9658 55.4893C18.3524 55.7026 18.8658 55.8093 19.5058 55.8093C20.2258 55.8093 20.7991 55.676 21.2258 55.4093C21.6658 55.1426 21.8858 54.756 21.8858 54.2493C21.8858 53.916 21.7924 53.6493 21.6058 53.4493C21.4191 53.2493 21.1058 53.0693 20.6658 52.9093C20.2391 52.7493 19.5991 52.576 18.7458 52.3893C17.5858 52.136 16.7658 51.7693 16.2858 51.2893C15.8058 50.8093 15.5658 50.1893 15.5658 49.4293C15.5658 48.936 15.7124 48.4626 16.0058 48.0093C16.2991 47.5426 16.7324 47.1693 17.3058 46.8893C17.8924 46.596 18.5858 46.4493 19.3858 46.4493C20.2258 46.4493 20.9391 46.5893 21.5258 46.8693C22.1258 47.1493 22.5724 47.476 22.8658 47.8493C23.1724 48.2226 23.3258 48.536 23.3258 48.7893C23.3258 48.9093 23.2791 49.0093 23.1858 49.0893C23.1058 49.1693 23.0058 49.2093 22.8858 49.2093H22.1258C21.9391 49.2093 21.8058 49.136 21.7258 48.9893C21.4991 48.736 21.3058 48.5426 21.1458 48.4093C20.9991 48.2626 20.7791 48.1426 20.4858 48.0493C20.1924 47.9426 19.8258 47.8893 19.3858 47.8893C18.7324 47.8893 18.2324 48.0293 17.8858 48.3093C17.5391 48.576 17.3658 48.936 17.3658 49.3893C17.3658 49.6693 17.4391 49.9093 17.5858 50.1093C17.7324 50.296 18.0124 50.476 18.4258 50.6493C18.8391 50.8093 19.4524 50.976 20.2658 51.1493C21.5324 51.416 22.4258 51.796 22.9458 52.2893C23.4791 52.7826 23.7458 53.416 23.7458 54.1893C23.7458 54.7626 23.5791 55.2826 23.2458 55.7493C22.9258 56.216 22.4391 56.5826 21.7858 56.8493C21.1458 57.116 20.3791 57.2493 19.4858 57.2493ZM30.202 57.2493C28.842 57.2493 27.7554 56.8293 26.942 55.9893C26.1287 55.136 25.682 53.976 25.602 52.5093L25.582 51.8293L25.602 51.1693C25.682 49.7293 26.1287 48.5826 26.942 47.7293C27.7554 46.876 28.842 46.4493 30.202 46.4493C31.6687 46.4493 32.802 46.916 33.602 47.8493C34.4154 48.7826 34.822 50.0493 34.822 51.6493V52.0093C34.822 52.1426 34.7754 52.256 34.682 52.3493C34.602 52.4293 34.4954 52.4693 34.362 52.4693H27.422V52.6493C27.462 53.516 27.7287 54.256 28.222 54.8693C28.7154 55.4826 29.3687 55.7893 30.182 55.7893C30.8087 55.7893 31.3154 55.6693 31.702 55.4293C32.102 55.176 32.402 54.916 32.602 54.6493C32.722 54.4893 32.8154 54.396 32.882 54.3693C32.9487 54.3293 33.062 54.3093 33.222 54.3093H34.102C34.222 54.3093 34.322 54.3426 34.402 54.4093C34.4954 54.476 34.542 54.5626 34.542 54.6693C34.542 54.9626 34.362 55.316 34.002 55.7293C33.642 56.1426 33.1287 56.5026 32.462 56.8093C31.8087 57.1026 31.0554 57.2493 30.202 57.2493ZM33.002 51.1093V51.0493C33.002 50.116 32.7487 49.356 32.242 48.7693C31.7354 48.1826 31.0554 47.8893 30.202 47.8893C29.3354 47.8893 28.6554 48.1826 28.162 48.7693C27.6687 49.356 27.422 50.116 27.422 51.0493V51.1093H33.002ZM37.7139 57.0493C37.5806 57.0493 37.4672 57.0093 37.3739 56.9293C37.2939 56.836 37.2539 56.7226 37.2539 56.5893V47.1293C37.2539 46.996 37.2939 46.8826 37.3739 46.7893C37.4672 46.696 37.5806 46.6493 37.7139 46.6493H38.5539C38.7006 46.6493 38.8139 46.696 38.8939 46.7893C38.9872 46.8693 39.0339 46.9826 39.0339 47.1293V48.0093C39.5806 47.1026 40.5072 46.6493 41.8139 46.6493H42.5939C42.7406 46.6493 42.8539 46.6893 42.9339 46.7693C43.0139 46.8493 43.0539 46.9626 43.0539 47.1093V47.8493C43.0539 47.9826 43.0139 48.096 42.9339 48.1893C42.8539 48.2693 42.7406 48.3093 42.5939 48.3093H41.4539C40.7206 48.3093 40.1406 48.5226 39.7139 48.9493C39.3006 49.376 39.0939 49.956 39.0939 50.6893V56.5893C39.0939 56.7226 39.0472 56.836 38.9539 56.9293C38.8606 57.0093 38.7472 57.0493 38.6139 57.0493H37.7139ZM48.3334 57.2493C47.4134 57.2493 46.6334 57.1026 45.9934 56.8093C45.3668 56.5026 44.9001 56.156 44.5934 55.7693C44.2868 55.3826 44.1334 55.0626 44.1334 54.8093C44.1334 54.676 44.1801 54.576 44.2734 54.5093C44.3668 54.4293 44.4668 54.3893 44.5734 54.3893H45.4134C45.4934 54.3893 45.5534 54.4026 45.5934 54.4293C45.6468 54.456 45.7134 54.516 45.7934 54.6093C46.1001 54.9826 46.4401 55.276 46.8134 55.4893C47.2001 55.7026 47.7134 55.8093 48.3534 55.8093C49.0734 55.8093 49.6468 55.676 50.0734 55.4093C50.5134 55.1426 50.7334 54.756 50.7334 54.2493C50.7334 53.916 50.6401 53.6493 50.4534 53.4493C50.2668 53.2493 49.9534 53.0693 49.5134 52.9093C49.0868 52.7493 48.4468 52.576 47.5934 52.3893C46.4334 52.136 45.6134 51.7693 45.1334 51.2893C44.6534 50.8093 44.4134 50.1893 44.4134 49.4293C44.4134 48.936 44.5601 48.4626 44.8534 48.0093C45.1468 47.5426 45.5801 47.1693 46.1534 46.8893C46.7401 46.596 47.4334 46.4493 48.2334 46.4493C49.0734 46.4493 49.7868 46.5893 50.3734 46.8693C50.9734 47.1493 51.4201 47.476 51.7134 47.8493C52.0201 48.2226 52.1734 48.536 52.1734 48.7893C52.1734 48.9093 52.1268 49.0093 52.0334 49.0893C51.9534 49.1693 51.8534 49.2093 51.7334 49.2093H50.9734C50.7868 49.2093 50.6534 49.136 50.5734 48.9893C50.3468 48.736 50.1534 48.5426 49.9934 48.4093C49.8468 48.2626 49.6268 48.1426 49.3334 48.0493C49.0401 47.9426 48.6734 47.8893 48.2334 47.8893C47.5801 47.8893 47.0801 48.0293 46.7334 48.3093C46.3868 48.576 46.2134 48.936 46.2134 49.3893C46.2134 49.6693 46.2868 49.9093 46.4334 50.1093C46.5801 50.296 46.8601 50.476 47.2734 50.6493C47.6868 50.8093 48.3001 50.976 49.1134 51.1493C50.3801 51.416 51.2734 51.796 51.7934 52.2893C52.3268 52.7826 52.5934 53.416 52.5934 54.1893C52.5934 54.7626 52.4268 55.2826 52.0934 55.7493C51.7734 56.216 51.2868 56.5826 50.6334 56.8493C49.9934 57.116 49.2268 57.2493 48.3334 57.2493Z" fill="#4F5665"/>
<path d="M4.8 24.0493C4.65 24.0493 4.525 23.9993 4.425 23.8993C4.325 23.7826 4.275 23.6493 4.275 23.4993C4.275 23.3826 4.30833 23.2743 4.375 23.1743L7.875 18.3993C7.65833 18.4493 7.43333 18.466 7.2 18.4493C6.18333 18.3826 5.21667 18.1076 4.3 17.6243C3.38333 17.1243 2.63333 16.441 2.05 15.5743C1.48333 14.691 1.2 13.691 1.2 12.5743C1.2 11.4743 1.475 10.4493 2.025 9.49932C2.59167 8.53265 3.41667 7.75765 4.5 7.17432C5.6 6.59098 6.91667 6.29932 8.45 6.29932C10 6.29932 11.3333 6.56598 12.45 7.09932C13.5667 7.63265 14.4083 8.36598 14.975 9.29932C15.5583 10.216 15.85 11.2493 15.85 12.3993C15.85 13.316 15.6583 14.1576 15.275 14.9243C14.9083 15.6743 14.35 16.5576 13.6 17.5743L13.15 18.1993L9.225 23.5493C8.99167 23.8826 8.69167 24.0493 8.325 24.0493H4.8ZM8.5 15.0493C9.23333 15.0493 9.83333 14.8243 10.3 14.3743C10.7833 13.9243 11.025 13.316 11.025 12.5493C11.025 11.7826 10.7833 11.1743 10.3 10.7243C9.81667 10.2743 9.21667 10.0493 8.5 10.0493C7.76667 10.0493 7.15833 10.2743 6.675 10.7243C6.20833 11.1743 5.975 11.7826 5.975 12.5493C5.975 13.316 6.20833 13.9243 6.675 14.3743C7.14167 14.8243 7.75 15.0493 8.5 15.0493ZM25.1871 24.2993C22.8871 24.2826 21.1371 23.6743 19.9371 22.4743C18.7371 21.2743 18.0788 19.691 17.9621 17.7243C17.9288 16.8243 17.9121 16.016 17.9121 15.2993C17.9121 14.566 17.9288 13.7326 17.9621 12.7993C18.0288 11.5493 18.3371 10.441 18.8871 9.47432C19.4538 8.49098 20.2621 7.71598 21.3121 7.14931C22.3788 6.58265 23.6704 6.29932 25.1871 6.29932C26.7038 6.29932 27.9954 6.58265 29.0621 7.14931C30.1288 7.71598 30.9371 8.49098 31.4871 9.47432C32.0538 10.441 32.3704 11.5493 32.4371 12.7993C32.4704 13.266 32.4871 14.0993 32.4871 15.2993C32.4871 16.466 32.4704 17.2743 32.4371 17.7243C32.3204 19.691 31.6621 21.2743 30.4621 22.4743C29.2621 23.6743 27.5038 24.2826 25.1871 24.2993ZM25.1871 20.5243C25.9704 20.5243 26.5538 20.2743 26.9371 19.7743C27.3204 19.2576 27.5288 18.5326 27.5621 17.5993C27.5954 17.116 27.6121 16.3326 27.6121 15.2493C27.6121 14.166 27.5954 13.3993 27.5621 12.9493C27.5288 12.0493 27.3204 11.341 26.9371 10.8243C26.5538 10.291 25.9704 10.0243 25.1871 10.0243C23.6871 10.0243 22.8954 10.9993 22.8121 12.9493C22.7954 13.3993 22.7871 14.166 22.7871 15.2493C22.7871 16.3326 22.7954 17.116 22.8121 17.5993C22.8954 19.5493 23.6871 20.5243 25.1871 20.5243ZM40.252 23.2243C40.0853 23.2243 39.9353 23.166 39.802 23.0493C39.6853 22.916 39.627 22.766 39.627 22.5993V18.0743H35.227C35.0603 18.0743 34.9103 18.016 34.777 17.8993C34.6603 17.766 34.602 17.616 34.602 17.4493V15.5243C34.602 15.341 34.6603 15.191 34.777 15.0743C34.8936 14.941 35.0436 14.8743 35.227 14.8743H39.627V10.4993C39.627 10.316 39.6853 10.166 39.802 10.0493C39.9353 9.93265 40.0853 9.87432 40.252 9.87432H42.402C42.5853 9.87432 42.7353 9.93265 42.852 10.0493C42.9853 10.166 43.052 10.316 43.052 10.4993V14.8743H47.402C47.5853 14.8743 47.7353 14.941 47.852 15.0743C47.9853 15.191 48.052 15.341 48.052 15.5243V17.4493C48.052 17.6326 47.9853 17.7826 47.852 17.8993C47.7353 18.016 47.5853 18.0743 47.402 18.0743H43.052V22.5993C43.052 22.7826 42.9853 22.9326 42.852 23.0493C42.7353 23.166 42.5853 23.2243 42.402 23.2243H40.252Z" fill="#0B132A"/>
</svg>
