<svg width="72" height="66" viewBox="0 0 72 66" fill="none" xmlns="http://www.w3.org/2000/svg">
<path d="M6.72 57.2493C5.62667 57.2493 4.67333 57.076 3.86 56.7293C3.06 56.3826 2.44667 55.9293 2.02 55.3693C1.60667 54.796 1.38667 54.1826 1.36 53.5293C1.36 53.4226 1.4 53.3293 1.48 53.2493C1.56 53.1693 1.66 53.1293 1.78 53.1293H2.76C3 53.1293 3.16667 53.2626 3.26 53.5293C3.38 54.0893 3.72 54.576 4.28 54.9893C4.85333 55.3893 5.66667 55.5893 6.72 55.5893C7.85333 55.5893 8.7 55.3893 9.26 54.9893C9.82 54.5893 10.1 54.036 10.1 53.3293C10.1 52.876 9.96 52.5026 9.68 52.2093C9.41333 51.916 9.00667 51.6626 8.46 51.4493C7.92667 51.2226 7.12 50.9493 6.04 50.6293C5.01333 50.336 4.19333 50.0226 3.58 49.6893C2.98 49.356 2.52667 48.9493 2.22 48.4693C1.91333 47.976 1.76 47.356 1.76 46.6093C1.76 45.8893 1.95333 45.2493 2.34 44.6893C2.72667 44.116 3.28667 43.6693 4.02 43.3493C4.75333 43.016 5.62 42.8493 6.62 42.8493C7.66 42.8493 8.54667 43.036 9.28 43.4093C10.0267 43.7693 10.5933 44.2293 10.98 44.7893C11.3667 45.336 11.5733 45.8893 11.6 46.4493C11.6 46.5693 11.56 46.6693 11.48 46.7493C11.4 46.8293 11.3 46.8693 11.18 46.8693H10.18C10.0733 46.8693 9.97333 46.836 9.88 46.7693C9.78667 46.7026 9.72 46.6026 9.68 46.4693C9.6 45.896 9.28 45.4226 8.72 45.0493C8.16 44.676 7.46 44.4893 6.62 44.4893C5.71333 44.4893 4.99333 44.6693 4.46 45.0293C3.92667 45.376 3.66 45.896 3.66 46.5893C3.66 47.056 3.78 47.436 4.02 47.7293C4.27333 48.0226 4.65333 48.2826 5.16 48.5093C5.68 48.736 6.43333 48.996 7.42 49.2893C8.55333 49.6093 9.44 49.9293 10.08 50.2493C10.7333 50.5693 11.22 50.9693 11.54 51.4493C11.86 51.916 12.02 52.5226 12.02 53.2693C12.02 54.5226 11.54 55.5026 10.58 56.2093C9.63333 56.9026 8.34667 57.2493 6.72 57.2493ZM18.5223 57.2493C17.1623 57.2493 16.0757 56.8293 15.2623 55.9893C14.449 55.136 14.0023 53.976 13.9223 52.5093L13.9023 51.8293L13.9223 51.1693C14.0023 49.7293 14.449 48.5826 15.2623 47.7293C16.0757 46.876 17.1623 46.4493 18.5223 46.4493C19.989 46.4493 21.1223 46.916 21.9223 47.8493C22.7357 48.7826 23.1423 50.0493 23.1423 51.6493V52.0093C23.1423 52.1426 23.0957 52.256 23.0023 52.3493C22.9223 52.4293 22.8157 52.4693 22.6823 52.4693H15.7423V52.6493C15.7823 53.516 16.049 54.256 16.5423 54.8693C17.0357 55.4826 17.689 55.7893 18.5023 55.7893C19.129 55.7893 19.6357 55.6693 20.0223 55.4293C20.4223 55.176 20.7223 54.916 20.9223 54.6493C21.0423 54.4893 21.1357 54.396 21.2023 54.3693C21.269 54.3293 21.3823 54.3093 21.5423 54.3093H22.4223C22.5423 54.3093 22.6423 54.3426 22.7223 54.4093C22.8157 54.476 22.8623 54.5626 22.8623 54.6693C22.8623 54.9626 22.6823 55.316 22.3223 55.7293C21.9623 56.1426 21.449 56.5026 20.7823 56.8093C20.129 57.1026 19.3757 57.2493 18.5223 57.2493ZM21.3223 51.1093V51.0493C21.3223 50.116 21.069 49.356 20.5623 48.7693C20.0557 48.1826 19.3757 47.8893 18.5223 47.8893C17.6557 47.8893 16.9757 48.1826 16.4823 48.7693C15.989 49.356 15.7423 50.116 15.7423 51.0493V51.1093H21.3223ZM26.0342 57.0493C25.9009 57.0493 25.7876 57.0093 25.6942 56.9293C25.6142 56.836 25.5742 56.7226 25.5742 56.5893V47.1293C25.5742 46.996 25.6142 46.8826 25.6942 46.7893C25.7876 46.696 25.9009 46.6493 26.0342 46.6493H26.8742C27.0209 46.6493 27.1342 46.696 27.2142 46.7893C27.3076 46.8693 27.3542 46.9826 27.3542 47.1293V48.0093C27.9009 47.1026 28.8276 46.6493 30.1342 46.6493H30.9142C31.0609 46.6493 31.1742 46.6893 31.2542 46.7693C31.3342 46.8493 31.3742 46.9626 31.3742 47.1093V47.8493C31.3742 47.9826 31.3342 48.096 31.2542 48.1893C31.1742 48.2693 31.0609 48.3093 30.9142 48.3093H29.7742C29.0409 48.3093 28.4609 48.5226 28.0342 48.9493C27.6209 49.376 27.4142 49.956 27.4142 50.6893V56.5893C27.4142 56.7226 27.3676 56.836 27.2742 56.9293C27.1809 57.0093 27.0676 57.0493 26.9342 57.0493H26.0342ZM36.7138 57.0493C36.3671 57.0493 36.1204 56.8826 35.9738 56.5493L32.2537 47.2693C32.2404 47.2293 32.2338 47.1626 32.2338 47.0693C32.2338 46.9493 32.2738 46.8493 32.3538 46.7693C32.4338 46.6893 32.5271 46.6493 32.6338 46.6493H33.5538C33.7671 46.6493 33.9271 46.756 34.0338 46.9693L37.1138 54.9493L40.1938 46.9693C40.2204 46.8893 40.2738 46.816 40.3538 46.7493C40.4471 46.6826 40.5538 46.6493 40.6738 46.6493H41.5938C41.7004 46.6493 41.7938 46.6893 41.8737 46.7693C41.9538 46.8493 41.9938 46.9493 41.9938 47.0693L41.9538 47.2693L38.2538 56.5493C38.1071 56.8826 37.8604 57.0493 37.5138 57.0493H36.7138ZM47.8778 57.2493C46.5178 57.2493 45.4311 56.8293 44.6178 55.9893C43.8045 55.136 43.3578 53.976 43.2778 52.5093L43.2578 51.8293L43.2778 51.1693C43.3578 49.7293 43.8045 48.5826 44.6178 47.7293C45.4311 46.876 46.5178 46.4493 47.8778 46.4493C49.3445 46.4493 50.4778 46.916 51.2778 47.8493C52.0911 48.7826 52.4978 50.0493 52.4978 51.6493V52.0093C52.4978 52.1426 52.4511 52.256 52.3578 52.3493C52.2778 52.4293 52.1711 52.4693 52.0378 52.4693H45.0978V52.6493C45.1378 53.516 45.4045 54.256 45.8978 54.8693C46.3911 55.4826 47.0445 55.7893 47.8578 55.7893C48.4845 55.7893 48.9911 55.6693 49.3778 55.4293C49.7778 55.176 50.0778 54.916 50.2778 54.6493C50.3978 54.4893 50.4911 54.396 50.5578 54.3693C50.6245 54.3293 50.7378 54.3093 50.8978 54.3093H51.7778C51.8978 54.3093 51.9978 54.3426 52.0778 54.4093C52.1711 54.476 52.2178 54.5626 52.2178 54.6693C52.2178 54.9626 52.0378 55.316 51.6778 55.7293C51.3178 56.1426 50.8045 56.5026 50.1378 56.8093C49.4845 57.1026 48.7311 57.2493 47.8778 57.2493ZM50.6778 51.1093V51.0493C50.6778 50.116 50.4245 49.356 49.9178 48.7693C49.4111 48.1826 48.7311 47.8893 47.8778 47.8893C47.0111 47.8893 46.3311 48.1826 45.8378 48.7693C45.3445 49.356 45.0978 50.116 45.0978 51.0493V51.1093H50.6778ZM55.3897 57.0493C55.2564 57.0493 55.143 57.0093 55.0497 56.9293C54.9697 56.836 54.9297 56.7226 54.9297 56.5893V47.1293C54.9297 46.996 54.9697 46.8826 55.0497 46.7893C55.143 46.696 55.2564 46.6493 55.3897 46.6493H56.2297C56.3764 46.6493 56.4897 46.696 56.5697 46.7893C56.663 46.8693 56.7097 46.9826 56.7097 47.1293V48.0093C57.2564 47.1026 58.183 46.6493 59.4897 46.6493H60.2697C60.4164 46.6493 60.5297 46.6893 60.6097 46.7693C60.6897 46.8493 60.7297 46.9626 60.7297 47.1093V47.8493C60.7297 47.9826 60.6897 48.096 60.6097 48.1893C60.5297 48.2693 60.4164 48.3093 60.2697 48.3093H59.1297C58.3964 48.3093 57.8164 48.5226 57.3897 48.9493C56.9764 49.376 56.7697 49.956 56.7697 50.6893V56.5893C56.7697 56.7226 56.723 56.836 56.6297 56.9293C56.5364 57.0093 56.423 57.0493 56.2897 57.0493H55.3897ZM66.0092 57.2493C65.0892 57.2493 64.3092 57.1026 63.6692 56.8093C63.0426 56.5026 62.5759 56.156 62.2692 55.7693C61.9626 55.3826 61.8092 55.0626 61.8092 54.8093C61.8092 54.676 61.8559 54.576 61.9492 54.5093C62.0426 54.4293 62.1426 54.3893 62.2492 54.3893H63.0892C63.1692 54.3893 63.2292 54.4026 63.2692 54.4293C63.3226 54.456 63.3892 54.516 63.4692 54.6093C63.7759 54.9826 64.1159 55.276 64.4892 55.4893C64.8759 55.7026 65.3892 55.8093 66.0292 55.8093C66.7492 55.8093 67.3226 55.676 67.7492 55.4093C68.1892 55.1426 68.4092 54.756 68.4092 54.2493C68.4092 53.916 68.3159 53.6493 68.1292 53.4493C67.9426 53.2493 67.6292 53.0693 67.1892 52.9093C66.7626 52.7493 66.1226 52.576 65.2692 52.3893C64.1092 52.136 63.2892 51.7693 62.8092 51.2893C62.3292 50.8093 62.0892 50.1893 62.0892 49.4293C62.0892 48.936 62.2359 48.4626 62.5292 48.0093C62.8226 47.5426 63.2559 47.1693 63.8292 46.8893C64.4159 46.596 65.1092 46.4493 65.9092 46.4493C66.7492 46.4493 67.4626 46.5893 68.0492 46.8693C68.6492 47.1493 69.0959 47.476 69.3892 47.8493C69.6959 48.2226 69.8492 48.536 69.8492 48.7893C69.8492 48.9093 69.8026 49.0093 69.7092 49.0893C69.6292 49.1693 69.5292 49.2093 69.4092 49.2093H68.6492C68.4626 49.2093 68.3292 49.136 68.2492 48.9893C68.0226 48.736 67.8292 48.5426 67.6692 48.4093C67.5226 48.2626 67.3026 48.1426 67.0092 48.0493C66.7159 47.9426 66.3492 47.8893 65.9092 47.8893C65.2559 47.8893 64.7559 48.0293 64.4092 48.3093C64.0626 48.576 63.8892 48.936 63.8892 49.3893C63.8892 49.6693 63.9626 49.9093 64.1092 50.1093C64.2559 50.296 64.5359 50.476 64.9492 50.6493C65.3626 50.8093 65.9759 50.976 66.7892 51.1493C68.0559 51.416 68.9492 51.796 69.4692 52.2893C70.0026 52.7826 70.2692 53.416 70.2692 54.1893C70.2692 54.7626 70.1026 55.2826 69.7692 55.7493C69.4492 56.216 68.9626 56.5826 68.3092 56.8493C67.6692 57.116 66.9026 57.2493 66.0092 57.2493Z" fill="#4F5665"/>
<path d="M8.575 24.3243C7.05833 24.3243 5.75 24.0826 4.65 23.5993C3.56667 23.116 2.74167 22.4743 2.175 21.6743C1.625 20.8743 1.33333 19.9993 1.3 19.0493C1.3 18.8993 1.35 18.7743 1.45 18.6743C1.55 18.5743 1.675 18.5243 1.825 18.5243H5.35C5.75 18.5243 6.025 18.6826 6.175 18.9993C6.40833 19.5493 6.71667 19.9493 7.1 20.1993C7.5 20.4493 7.99167 20.5743 8.575 20.5743C9.29167 20.5743 9.88333 20.3576 10.35 19.9243C10.8333 19.491 11.075 18.8826 11.075 18.0993C11.075 17.416 10.8417 16.8493 10.375 16.3993C9.90833 15.9493 9.30833 15.7243 8.575 15.7243C8.15833 15.7243 7.825 15.7826 7.575 15.8993C7.325 15.9993 7.08333 16.141 6.85 16.3243C6.6 16.5243 6.38333 16.6243 6.2 16.6243H2.725C2.575 16.6243 2.44167 16.5743 2.325 16.4743C2.225 16.3576 2.175 16.2243 2.175 16.0743L3.1 7.29932C3.11667 7.06598 3.2 6.88265 3.35 6.74932C3.51667 6.61598 3.70833 6.54932 3.925 6.54932H14.1C14.2833 6.54932 14.4333 6.60765 14.55 6.72432C14.6667 6.84098 14.725 6.99098 14.725 7.17432V9.67432C14.725 9.84098 14.6667 9.99098 14.55 10.1243C14.4333 10.241 14.2833 10.2993 14.1 10.2993H6.825L6.525 13.3743C6.925 13.091 7.375 12.8826 7.875 12.7493C8.375 12.5993 9.025 12.5243 9.825 12.5243C10.8917 12.5243 11.8917 12.766 12.825 13.2493C13.7583 13.716 14.5 14.3826 15.05 15.2493C15.6167 16.116 15.9 17.1076 15.9 18.2243C15.9 19.391 15.6083 20.441 15.025 21.3743C14.4417 22.291 13.5917 23.016 12.475 23.5493C11.375 24.066 10.075 24.3243 8.575 24.3243ZM25.3092 24.2993C23.0092 24.2826 21.2592 23.6743 20.0592 22.4743C18.8592 21.2743 18.2008 19.691 18.0842 17.7243C18.0508 16.8243 18.0342 16.016 18.0342 15.2993C18.0342 14.566 18.0508 13.7326 18.0842 12.7993C18.1508 11.5493 18.4592 10.441 19.0092 9.47432C19.5758 8.49098 20.3842 7.71598 21.4342 7.14931C22.5008 6.58265 23.7925 6.29932 25.3092 6.29932C26.8258 6.29932 28.1175 6.58265 29.1842 7.14931C30.2508 7.71598 31.0592 8.49098 31.6092 9.47432C32.1758 10.441 32.4925 11.5493 32.5592 12.7993C32.5925 13.266 32.6092 14.0993 32.6092 15.2993C32.6092 16.466 32.5925 17.2743 32.5592 17.7243C32.4425 19.691 31.7842 21.2743 30.5842 22.4743C29.3842 23.6743 27.6258 24.2826 25.3092 24.2993ZM25.3092 20.5243C26.0925 20.5243 26.6758 20.2743 27.0592 19.7743C27.4425 19.2576 27.6508 18.5326 27.6842 17.5993C27.7175 17.116 27.7342 16.3326 27.7342 15.2493C27.7342 14.166 27.7175 13.3993 27.6842 12.9493C27.6508 12.0493 27.4425 11.341 27.0592 10.8243C26.6758 10.291 26.0925 10.0243 25.3092 10.0243C23.8092 10.0243 23.0175 10.9993 22.9342 12.9493C22.9175 13.3993 22.9092 14.166 22.9092 15.2493C22.9092 16.3326 22.9175 17.116 22.9342 17.5993C23.0175 19.5493 23.8092 20.5243 25.3092 20.5243ZM40.374 23.2243C40.2074 23.2243 40.0574 23.166 39.924 23.0493C39.8074 22.916 39.749 22.766 39.749 22.5993V18.0743H35.349C35.1824 18.0743 35.0324 18.016 34.899 17.8993C34.7824 17.766 34.724 17.616 34.724 17.4493V15.5243C34.724 15.341 34.7824 15.191 34.899 15.0743C35.0157 14.941 35.1657 14.8743 35.349 14.8743H39.749V10.4993C39.749 10.316 39.8074 10.166 39.924 10.0493C40.0574 9.93265 40.2074 9.87432 40.374 9.87432H42.524C42.7074 9.87432 42.8574 9.93265 42.974 10.0493C43.1074 10.166 43.174 10.316 43.174 10.4993V14.8743H47.524C47.7074 14.8743 47.8574 14.941 47.974 15.0743C48.1074 15.191 48.174 15.341 48.174 15.5243V17.4493C48.174 17.6326 48.1074 17.7826 47.974 17.8993C47.8574 18.016 47.7074 18.0743 47.524 18.0743H43.174V22.5993C43.174 22.7826 43.1074 22.9326 42.974 23.0493C42.8574 23.166 42.7074 23.2243 42.524 23.2243H40.374Z" fill="#0B132A"/>
</svg>
