<svg width="91" height="66" viewBox="0 0 91 66" fill="none" xmlns="http://www.w3.org/2000/svg">
<path d="M2.2 57.0493C2.06667 57.0493 1.96 57.0093 1.88 56.9293C1.8 56.836 1.76 56.7226 1.76 56.5893V43.5093C1.76 43.376 1.8 43.2693 1.88 43.1893C1.96 43.096 2.06667 43.0493 2.2 43.0493H3.2C3.33333 43.0493 3.44 43.096 3.52 43.1893C3.6 43.2693 3.64 43.376 3.64 43.5093V55.3693H10.32C10.4667 55.3693 10.58 55.416 10.66 55.5093C10.7533 55.5893 10.8 55.696 10.8 55.8293V56.5893C10.8 56.7226 10.7533 56.836 10.66 56.9293C10.5667 57.0093 10.4533 57.0493 10.32 57.0493H2.2ZM16.7161 57.2493C15.2494 57.2493 14.1161 56.836 13.3161 56.0093C12.5294 55.1826 12.1094 54.0826 12.0561 52.7093L12.0361 51.8493L12.0561 50.9893C12.1094 49.616 12.5361 48.516 13.3361 47.6893C14.1494 46.8626 15.2761 46.4493 16.7161 46.4493C18.1561 46.4493 19.2761 46.8626 20.0761 47.6893C20.8894 48.516 21.3228 49.616 21.3761 50.9893C21.4028 51.2826 21.4161 51.5693 21.4161 51.8493C21.4161 52.1293 21.4028 52.416 21.3761 52.7093C21.3228 54.0826 20.8961 55.1826 20.0961 56.0093C19.3094 56.836 18.1828 57.2493 16.7161 57.2493ZM16.7161 55.7493C17.5694 55.7493 18.2428 55.4826 18.7361 54.9493C19.2428 54.4026 19.5161 53.6226 19.5561 52.6093C19.5694 52.476 19.5761 52.2226 19.5761 51.8493C19.5761 51.476 19.5694 51.2226 19.5561 51.0893C19.5161 50.076 19.2428 49.3026 18.7361 48.7693C18.2428 48.2226 17.5694 47.9493 16.7161 47.9493C15.8628 47.9493 15.1828 48.2226 14.6761 48.7693C14.1828 49.3026 13.9161 50.076 13.8761 51.0893L13.8561 51.8493L13.8761 52.6093C13.9161 53.6226 14.1828 54.4026 14.6761 54.9493C15.1828 55.4826 15.8628 55.7493 16.7161 55.7493ZM28.1014 57.2493C26.6747 57.2493 25.5614 56.8493 24.7614 56.0493C23.9614 55.236 23.5414 54.1026 23.5014 52.6493L23.4814 51.8493L23.5014 51.0493C23.5414 49.596 23.9614 48.4693 24.7614 47.6693C25.5614 46.856 26.6747 46.4493 28.1014 46.4493C29.0614 46.4493 29.8681 46.6226 30.5214 46.9693C31.1881 47.3026 31.6814 47.7226 32.0014 48.2293C32.3347 48.736 32.5147 49.2426 32.5414 49.7493C32.5547 49.8693 32.5081 49.976 32.4014 50.0693C32.3081 50.1626 32.2014 50.2093 32.0814 50.2093H31.2014C31.0681 50.2093 30.9681 50.1826 30.9014 50.1293C30.8347 50.0626 30.7681 49.9493 30.7014 49.7893C30.4614 49.136 30.1281 48.676 29.7014 48.4093C29.2881 48.1293 28.7614 47.9893 28.1214 47.9893C27.2814 47.9893 26.6147 48.2493 26.1214 48.7693C25.6281 49.2893 25.3614 50.0826 25.3214 51.1493L25.3014 51.8493L25.3214 52.5493C25.3614 53.616 25.6281 54.4093 26.1214 54.9293C26.6147 55.4493 27.2814 55.7093 28.1214 55.7093C28.7747 55.7093 29.3081 55.576 29.7214 55.3093C30.1347 55.0293 30.4614 54.5626 30.7014 53.9093C30.7681 53.7493 30.8347 53.6426 30.9014 53.5893C30.9681 53.5226 31.0681 53.4893 31.2014 53.4893H32.0814C32.2014 53.4893 32.3081 53.536 32.4014 53.6293C32.5081 53.7226 32.5547 53.8293 32.5414 53.9493C32.5147 54.4426 32.3347 54.9426 32.0014 55.4493C31.6814 55.956 31.1881 56.3826 30.5214 56.7293C29.8681 57.076 29.0614 57.2493 28.1014 57.2493ZM37.8175 57.2493C37.1642 57.2493 36.5575 57.116 35.9975 56.8493C35.4508 56.5826 35.0108 56.2226 34.6775 55.7693C34.3575 55.3026 34.1975 54.7893 34.1975 54.2293C34.1975 53.3493 34.5575 52.6293 35.2775 52.0693C35.9975 51.5093 36.9775 51.136 38.2175 50.9493L41.2175 50.5293V49.9493C41.2175 48.576 40.4242 47.8893 38.8375 47.8893C38.2242 47.8893 37.7308 48.016 37.3575 48.2693C36.9842 48.5093 36.7108 48.796 36.5375 49.1293C36.4842 49.2626 36.4242 49.356 36.3575 49.4093C36.3042 49.4493 36.2242 49.4693 36.1175 49.4693H35.3375C35.2175 49.4693 35.1108 49.4293 35.0175 49.3493C34.9375 49.256 34.8975 49.1493 34.8975 49.0293C34.8975 48.7226 35.0375 48.3693 35.3175 47.9693C35.6108 47.556 36.0575 47.2026 36.6575 46.9093C37.2575 46.6026 37.9908 46.4493 38.8575 46.4493C40.3508 46.4493 41.4175 46.796 42.0575 47.4893C42.7108 48.1826 43.0375 49.0493 43.0375 50.0893V56.5893C43.0375 56.7226 42.9908 56.836 42.8975 56.9293C42.8175 57.0093 42.7108 57.0493 42.5775 57.0493H41.6975C41.5642 57.0493 41.4575 57.0093 41.3775 56.9293C41.2975 56.836 41.2575 56.7226 41.2575 56.5893V55.7093C40.9642 56.1493 40.5375 56.516 39.9775 56.8093C39.4175 57.1026 38.6975 57.2493 37.8175 57.2493ZM38.2175 55.7893C39.0975 55.7893 39.8175 55.5026 40.3775 54.9293C40.9375 54.356 41.2175 53.5226 41.2175 52.4293V51.8693L38.8775 52.2093C37.9175 52.3426 37.1908 52.5693 36.6975 52.8893C36.2042 53.2093 35.9575 53.6093 35.9575 54.0893C35.9575 54.636 36.1775 55.056 36.6175 55.3493C37.0708 55.6426 37.6042 55.7893 38.2175 55.7893ZM49.8359 57.0493C47.7693 57.0493 46.7359 55.8826 46.7359 53.5493V48.1893H45.1559C45.0226 48.1893 44.9159 48.1493 44.8359 48.0693C44.7559 47.9893 44.7159 47.8826 44.7159 47.7493V47.1093C44.7159 46.976 44.7559 46.8693 44.8359 46.7893C44.9159 46.696 45.0226 46.6493 45.1559 46.6493H46.7359V43.3093C46.7359 43.176 46.7759 43.0693 46.8559 42.9893C46.9359 42.896 47.0426 42.8493 47.1759 42.8493H48.0559C48.1893 42.8493 48.2959 42.896 48.3759 42.9893C48.4693 43.0693 48.5159 43.176 48.5159 43.3093V46.6493H50.9959C51.1293 46.6493 51.2359 46.696 51.3159 46.7893C51.4093 46.8693 51.4559 46.976 51.4559 47.1093V47.7493C51.4559 47.8826 51.4093 47.9893 51.3159 48.0693C51.2359 48.1493 51.1293 48.1893 50.9959 48.1893H48.5159V53.4093C48.5159 54.0893 48.6226 54.6026 48.8359 54.9493C49.0626 55.296 49.4426 55.4693 49.9759 55.4693H51.1959C51.3293 55.4693 51.4359 55.516 51.5159 55.6093C51.5959 55.6893 51.6359 55.796 51.6359 55.9293V56.5893C51.6359 56.7226 51.5959 56.836 51.5159 56.9293C51.4359 57.0093 51.3293 57.0493 51.1959 57.0493H49.8359ZM53.8898 44.6893C53.7565 44.6893 53.6432 44.6493 53.5498 44.5693C53.4698 44.476 53.4298 44.3626 53.4298 44.2293V43.1893C53.4298 43.056 53.4698 42.9426 53.5498 42.8493C53.6432 42.756 53.7565 42.7093 53.8898 42.7093H55.0698C55.2032 42.7093 55.3165 42.756 55.4098 42.8493C55.5032 42.9426 55.5498 43.056 55.5498 43.1893V44.2293C55.5498 44.3626 55.5032 44.476 55.4098 44.5693C55.3165 44.6493 55.2032 44.6893 55.0698 44.6893H53.8898ZM54.0498 57.0493C53.9165 57.0493 53.8032 57.0093 53.7098 56.9293C53.6298 56.836 53.5898 56.7226 53.5898 56.5893V47.1093C53.5898 46.976 53.6298 46.8693 53.7098 46.7893C53.8032 46.696 53.9165 46.6493 54.0498 46.6493H54.9298C55.0632 46.6493 55.1698 46.696 55.2498 46.7893C55.3432 46.8693 55.3898 46.976 55.3898 47.1093V56.5893C55.3898 56.7226 55.3432 56.836 55.2498 56.9293C55.1698 57.0093 55.0632 57.0493 54.9298 57.0493H54.0498ZM62.6145 57.2493C61.1479 57.2493 60.0145 56.836 59.2145 56.0093C58.4279 55.1826 58.0079 54.0826 57.9545 52.7093L57.9345 51.8493L57.9545 50.9893C58.0079 49.616 58.4345 48.516 59.2345 47.6893C60.0479 46.8626 61.1745 46.4493 62.6145 46.4493C64.0545 46.4493 65.1745 46.8626 65.9745 47.6893C66.7879 48.516 67.2212 49.616 67.2745 50.9893C67.3012 51.2826 67.3145 51.5693 67.3145 51.8493C67.3145 52.1293 67.3012 52.416 67.2745 52.7093C67.2212 54.0826 66.7945 55.1826 65.9945 56.0093C65.2079 56.836 64.0812 57.2493 62.6145 57.2493ZM62.6145 55.7493C63.4679 55.7493 64.1412 55.4826 64.6345 54.9493C65.1412 54.4026 65.4145 53.6226 65.4545 52.6093C65.4679 52.476 65.4745 52.2226 65.4745 51.8493C65.4745 51.476 65.4679 51.2226 65.4545 51.0893C65.4145 50.076 65.1412 49.3026 64.6345 48.7693C64.1412 48.2226 63.4679 47.9493 62.6145 47.9493C61.7612 47.9493 61.0812 48.2226 60.5745 48.7693C60.0812 49.3026 59.8145 50.076 59.7745 51.0893L59.7545 51.8493L59.7745 52.6093C59.8145 53.6226 60.0812 54.4026 60.5745 54.9493C61.0812 55.4826 61.7612 55.7493 62.6145 55.7493ZM70.2998 57.0493C70.1665 57.0493 70.0532 57.0093 69.9598 56.9293C69.8798 56.836 69.8398 56.7226 69.8398 56.5893V47.1093C69.8398 46.976 69.8798 46.8693 69.9598 46.7893C70.0532 46.696 70.1665 46.6493 70.2998 46.6493H71.1598C71.3065 46.6493 71.4198 46.6893 71.4998 46.7693C71.5798 46.8493 71.6198 46.9626 71.6198 47.1093V47.9893C72.0198 47.496 72.4798 47.116 72.9998 46.8493C73.5332 46.5826 74.1932 46.4493 74.9798 46.4493C76.2598 46.4493 77.2532 46.8626 77.9598 47.6893C78.6665 48.5026 79.0198 49.5826 79.0198 50.9293V56.5893C79.0198 56.7226 78.9732 56.836 78.8798 56.9293C78.7998 57.0093 78.6932 57.0493 78.5598 57.0493H77.6398C77.5065 57.0493 77.3932 57.0093 77.2998 56.9293C77.2198 56.836 77.1798 56.7226 77.1798 56.5893V51.0493C77.1798 50.0893 76.9465 49.3426 76.4798 48.8093C76.0132 48.276 75.3465 48.0093 74.4798 48.0093C73.6265 48.0093 72.9465 48.2826 72.4398 48.8293C71.9332 49.3626 71.6798 50.1026 71.6798 51.0493V56.5893C71.6798 56.7226 71.6332 56.836 71.5398 56.9293C71.4598 57.0093 71.3532 57.0493 71.2198 57.0493H70.2998ZM85.4702 57.2493C84.5502 57.2493 83.7702 57.1026 83.1302 56.8093C82.5035 56.5026 82.0368 56.156 81.7302 55.7693C81.4235 55.3826 81.2702 55.0626 81.2702 54.8093C81.2702 54.676 81.3168 54.576 81.4102 54.5093C81.5035 54.4293 81.6035 54.3893 81.7102 54.3893H82.5502C82.6302 54.3893 82.6902 54.4026 82.7302 54.4293C82.7835 54.456 82.8502 54.516 82.9302 54.6093C83.2368 54.9826 83.5768 55.276 83.9502 55.4893C84.3368 55.7026 84.8502 55.8093 85.4902 55.8093C86.2102 55.8093 86.7835 55.676 87.2102 55.4093C87.6502 55.1426 87.8702 54.756 87.8702 54.2493C87.8702 53.916 87.7768 53.6493 87.5902 53.4493C87.4035 53.2493 87.0902 53.0693 86.6502 52.9093C86.2235 52.7493 85.5835 52.576 84.7302 52.3893C83.5702 52.136 82.7502 51.7693 82.2702 51.2893C81.7902 50.8093 81.5502 50.1893 81.5502 49.4293C81.5502 48.936 81.6968 48.4626 81.9902 48.0093C82.2835 47.5426 82.7168 47.1693 83.2902 46.8893C83.8768 46.596 84.5702 46.4493 85.3702 46.4493C86.2102 46.4493 86.9235 46.5893 87.5102 46.8693C88.1102 47.1493 88.5568 47.476 88.8502 47.8493C89.1568 48.2226 89.3102 48.536 89.3102 48.7893C89.3102 48.9093 89.2635 49.0093 89.1702 49.0893C89.0902 49.1693 88.9902 49.2093 88.8702 49.2093H88.1102C87.9235 49.2093 87.7902 49.136 87.7102 48.9893C87.4835 48.736 87.2902 48.5426 87.1302 48.4093C86.9835 48.2626 86.7635 48.1426 86.4702 48.0493C86.1768 47.9426 85.8102 47.8893 85.3702 47.8893C84.7168 47.8893 84.2168 48.0293 83.8702 48.3093C83.5235 48.576 83.3502 48.936 83.3502 49.3893C83.3502 49.6693 83.4235 49.9093 83.5702 50.1093C83.7168 50.296 83.9968 50.476 84.4102 50.6493C84.8235 50.8093 85.4368 50.976 86.2502 51.1493C87.5168 51.416 88.4102 51.796 88.9302 52.2893C89.4635 52.7826 89.7302 53.416 89.7302 54.1893C89.7302 54.7626 89.5635 55.2826 89.2302 55.7493C88.9102 56.216 88.4235 56.5826 87.7702 56.8493C87.1302 57.116 86.3635 57.2493 85.4702 57.2493Z" fill="#4F5665"/>
<path d="M8.175 24.2993C6.54167 24.2993 5.16667 24.0493 4.05 23.5493C2.95 23.0326 2.13333 22.3993 1.6 21.6493C1.08333 20.8993 0.808333 20.1493 0.775 19.3993C0.775 19.2493 0.825 19.1243 0.925 19.0243C1.04167 18.9243 1.175 18.8743 1.325 18.8743H4.775C4.975 18.8743 5.13333 18.916 5.25 18.9993C5.36667 19.066 5.475 19.1826 5.575 19.3493C5.89167 20.166 6.76667 20.5743 8.2 20.5743C9.01667 20.5743 9.65 20.3826 10.1 19.9993C10.55 19.616 10.775 19.0993 10.775 18.4493C10.775 17.1993 9.94167 16.5743 8.275 16.5743H5.475C5.29167 16.5743 5.13333 16.516 5 16.3993C4.88333 16.266 4.825 16.1076 4.825 15.9243V14.4493C4.825 14.066 4.96667 13.7826 5.25 13.5993L9.275 10.2993H2.375C2.20833 10.2993 2.05833 10.241 1.925 10.1243C1.80833 9.99098 1.75 9.84098 1.75 9.67432V7.19932C1.75 7.01598 1.80833 6.86598 1.925 6.74932C2.04167 6.61598 2.19167 6.54932 2.375 6.54932H14.025C14.2083 6.54932 14.3583 6.61598 14.475 6.74932C14.5917 6.86598 14.65 7.01598 14.65 7.19932V9.42432C14.65 9.77432 14.5167 10.0493 14.25 10.2493L10.55 13.6243L10.725 13.6743C12.225 13.891 13.4167 14.4076 14.3 15.2243C15.1833 16.041 15.625 17.216 15.625 18.7493C15.625 19.866 15.3 20.8493 14.65 21.6993C14.0167 22.5326 13.1333 23.1743 12 23.6243C10.8833 24.0743 9.60833 24.2993 8.175 24.2993ZM25.151 24.2993C22.851 24.2826 21.101 23.6743 19.901 22.4743C18.701 21.2743 18.0426 19.691 17.926 17.7243C17.8926 16.8243 17.876 16.016 17.876 15.2993C17.876 14.566 17.8926 13.7326 17.926 12.7993C17.9926 11.5493 18.301 10.441 18.851 9.47432C19.4176 8.49098 20.226 7.71598 21.276 7.14931C22.3426 6.58265 23.6343 6.29932 25.151 6.29932C26.6676 6.29932 27.9593 6.58265 29.026 7.14931C30.0926 7.71598 30.901 8.49098 31.451 9.47432C32.0176 10.441 32.3343 11.5493 32.401 12.7993C32.4343 13.266 32.451 14.0993 32.451 15.2993C32.451 16.466 32.4343 17.2743 32.401 17.7243C32.2843 19.691 31.626 21.2743 30.426 22.4743C29.226 23.6743 27.4676 24.2826 25.151 24.2993ZM25.151 20.5243C25.9343 20.5243 26.5176 20.2743 26.901 19.7743C27.2843 19.2576 27.4926 18.5326 27.526 17.5993C27.5593 17.116 27.576 16.3326 27.576 15.2493C27.576 14.166 27.5593 13.3993 27.526 12.9493C27.4926 12.0493 27.2843 11.341 26.901 10.8243C26.5176 10.291 25.9343 10.0243 25.151 10.0243C23.651 10.0243 22.8593 10.9993 22.776 12.9493C22.7593 13.3993 22.751 14.166 22.751 15.2493C22.751 16.3326 22.7593 17.116 22.776 17.5993C22.8593 19.5493 23.651 20.5243 25.151 20.5243ZM40.2158 23.2243C40.0492 23.2243 39.8992 23.166 39.7658 23.0493C39.6492 22.916 39.5908 22.766 39.5908 22.5993V18.0743H35.1908C35.0242 18.0743 34.8742 18.016 34.7408 17.8993C34.6242 17.766 34.5658 17.616 34.5658 17.4493V15.5243C34.5658 15.341 34.6242 15.191 34.7408 15.0743C34.8575 14.941 35.0075 14.8743 35.1908 14.8743H39.5908V10.4993C39.5908 10.316 39.6492 10.166 39.7658 10.0493C39.8992 9.93265 40.0492 9.87432 40.2158 9.87432H42.3658C42.5492 9.87432 42.6992 9.93265 42.8158 10.0493C42.9492 10.166 43.0158 10.316 43.0158 10.4993V14.8743H47.3658C47.5492 14.8743 47.6992 14.941 47.8158 15.0743C47.9492 15.191 48.0158 15.341 48.0158 15.5243V17.4493C48.0158 17.6326 47.9492 17.7826 47.8158 17.8993C47.6992 18.016 47.5492 18.0743 47.3658 18.0743H43.0158V22.5993C43.0158 22.7826 42.9492 22.9326 42.8158 23.0493C42.6992 23.166 42.5492 23.2243 42.3658 23.2243H40.2158Z" fill="#0B132A"/>
</svg>
